<svg xmlns="http://www.w3.org/2000/svg" viewBox="0 0 431.97 96.78"><defs><style>.cls-1{fill:#394d37;}.cls-2{fill:#58ad53;}.cls-3{fill:#939a9a;}</style></defs><g id="Layer_2" data-name="Layer 2"><g id="TEXTS"><path class="cls-1" d="M168.55,66.32a4.81,4.81,0,0,0-6.22-.45,268,268,0,0,1-23.92,15.25,4.53,4.53,0,0,1-5.78-1,4.43,4.43,0,0,1,1.08-6.63,260.54,260.54,0,0,0,23.43-14.92,5.19,5.19,0,0,0,1.07-7.22,5,5,0,0,0-7-1.48,252.35,252.35,0,0,1-22.63,14.42,4.49,4.49,0,0,1-4.69-7.64,247.61,247.61,0,0,0,22.45-14.31,4.68,4.68,0,0,0,1.4-5.89c-1.36-2.72-4.49-3.64-6.59-2.16a243.51,243.51,0,0,1-31.63,19.35c-5.14,2.71-7,9.48-4,15.34l1.13,2.24c-52,22.56-84.83,9-96.58-44.31a43.28,43.28,0,0,0-2.77,4.37A17.45,17.45,0,0,0,5.8,44.93c3.09,10.12,9.54,24.32,22.62,33.52,0,0-19.36-7.29-27.9-27.7A43.06,43.06,0,0,0,3.86,75.38c11.45,25.05,35.72,15.29,35.72,15.29,21.08,9.51,46.55,6.19,75.14-3.6.48.94,1,2,1.58,3.12a11.82,11.82,0,0,0,16,5.27,273.62,273.62,0,0,0,35.66-21.81A4.86,4.86,0,0,0,168.55,66.32Z"/><path class="cls-2" d="M38.67,33s2.4,21.91,11.64,33c2.06-7.93,5.2-23.19,1.89-32.69C47.57,20,39.84,12.82,42.39,0c0,0-21,16.12-16.5,41.06C28.55,55.82,36.1,63.65,41.82,67.59,34.8,50.84,38.67,33,38.67,33Z"/><path class="cls-2" d="M82,52.12S67.61,61.89,63.28,72.43c6.3-1.49,18.12-4.93,23.53-10.75,7.57-8.14,9.75-16.21,19.65-19.16,0,0-19-8.71-34.77,3.64-9.33,7.31-12,15.48-12.65,20.93C68.15,56,82,52.12,82,52.12Z"/><path class="cls-2" d="M203.66,41.73c.83-1.67,1.67-3.33,2.5-5s1.59-3.19,2.26-4.62,1.25-2.7,1.73-3.83A10.74,10.74,0,0,0,211,25.6a3.9,3.9,0,0,0-.18-1.85,2.67,2.67,0,0,0-1-1.25,5.69,5.69,0,0,0-1.61-.74,9,9,0,0,0-2.05-.33,34.37,34.37,0,0,0-4.67.09,37.32,37.32,0,0,0-5.21.77A16.35,16.35,0,0,0,192,23.87a3.26,3.26,0,0,0-1.94,2.5,2.64,2.64,0,0,0,.3,1.49,2.88,2.88,0,0,0,1.1,1,4.18,4.18,0,0,0,2.41.36,5.21,5.21,0,0,0,.72-.06l.89-.15c.36-.06.77-.15,1.25-.27l-2.92,3.93A3.28,3.28,0,0,1,192,34.11a4.37,4.37,0,0,1-1.73.12,15,15,0,0,1-1.64-.42,11,11,0,0,1-2.44-1.07,7.15,7.15,0,0,1-2.11-1.93,4.36,4.36,0,0,1-.71-3.07,7,7,0,0,1,1.84-4,13.07,13.07,0,0,1,4.5-3.12,29.28,29.28,0,0,1,6.9-2,52.8,52.8,0,0,1,9.08-.71,18.84,18.84,0,0,1,6.07.8,7.35,7.35,0,0,1,3.3,2.09,4.45,4.45,0,0,1,1,3,9.94,9.94,0,0,1-.74,3.48c-.24.56-.59,1.32-1,2.3s-1,2.1-1.64,3.39-1.31,2.71-2,4.25-1.43,3.16-2.15,4.82c1.07.08,2.06.18,3,.3l2.11.3c.6.16.79.42.6.77a7.12,7.12,0,0,1-1,1.61,2.68,2.68,0,0,1-1.11.74,3.42,3.42,0,0,1-1.3.18l-1.61-.09c-.36,0-.72,0-1.07,0l-1.13-.09c-.76,1.79-1.48,3.56-2.18,5.3s-1.33,3.4-1.9,5-1.08,3-1.52,4.32a24.49,24.49,0,0,0-.89,3.27q-.36,1.84-.54,3.45c-.08.91-.12,1.87-.12,2.86a5.05,5.05,0,0,0,.48,2.38c-.83.24-1.56.44-2.17.59s-1.14.28-1.58.36l-1.19.3a2.87,2.87,0,0,1-2.35-.09c-.46-.34-.59-1.14-.39-2.41.08-.87.21-1.86.39-3a35.55,35.55,0,0,1,.83-3.69c.38-1.37.87-2.89,1.49-4.58s1.4-3.56,2.35-5.62c.56-1.19,1.19-2.51,1.91-4s1.46-3,2.26-4.67a50.46,50.46,0,0,0-5.66.35q-1.66.24-3.27.54l-3,.68q-1.57.39-2.94.87a3.31,3.31,0,0,1-.21-1,4.34,4.34,0,0,1,0-.89,6.16,6.16,0,0,1,.18-.83,4.28,4.28,0,0,1,.35-.84,13.8,13.8,0,0,1,1.14-1.78c1.86-.24,3.65-.42,5.35-.54s3.22-.21,4.53-.29c1.54-.08,3-.12,4.34-.12a1.54,1.54,0,0,1,.51,0A3.43,3.43,0,0,0,203.66,41.73Z"/><path class="cls-2" d="M214.31,62.38a2,2,0,0,1-.92.86,1.17,1.17,0,0,1-.89.06.84.84,0,0,1-.51-.62,1.81,1.81,0,0,1,.24-1.19l.81-1.61c.41-.83.91-1.84,1.48-3l1.88-3.81,1.93-3.89c.62-1.23,1.18-2.33,1.7-3.31s.89-1.67,1.13-2.11c-.44-.4-.73-.68-.89-.86a2.4,2.4,0,0,1-.36-1.16,4.18,4.18,0,0,1,.36-2,11.77,11.77,0,0,1,1.25-2.41,10.15,10.15,0,0,1,1.72-2,2.84,2.84,0,0,1,1.85-.83,2.56,2.56,0,0,1,2.35,1.07,5.12,5.12,0,0,1,.8,2.2,6.51,6.51,0,0,1-1,4.11,3.36,3.36,0,0,0,.48.26,2.19,2.19,0,0,0,.95.15,5.16,5.16,0,0,0,1.34-.12,4.47,4.47,0,0,1,1.22-.12,2.61,2.61,0,0,1,1.66.51A4.19,4.19,0,0,1,234,43.78a6.64,6.64,0,0,1,.62,1.61,10.35,10.35,0,0,1,.27,1.57,4.85,4.85,0,0,1-.78,3.1c-.63,1.07-1.4,2.24-2.32,3.51-.55.8-1.11,1.69-1.66,2.68a4.58,4.58,0,0,0-.72,2.68,3.34,3.34,0,0,0,.42,1.25c.2.32.75.47,1.67.47a4.35,4.35,0,0,0,2.23-.74,17.16,17.16,0,0,0,2.5-1.91,35.91,35.91,0,0,0,2.53-2.55c.83-.94,1.6-1.85,2.32-2.74s1.32-1.7,1.81-2.41.87-1.23,1.1-1.55a1.49,1.49,0,0,1,.78-.65,1,1,0,0,1,.83,0,.87.87,0,0,1,.45.71,2.27,2.27,0,0,1-.45,1.43c-.24.39-.64,1-1.22,1.9s-1.27,1.85-2.08,2.92-1.72,2.17-2.71,3.3a31.45,31.45,0,0,1-3.12,3.1,20.16,20.16,0,0,1-3.28,2.29,6.58,6.58,0,0,1-3.12.89,5.05,5.05,0,0,1-2.56-.59,5.41,5.41,0,0,1-1.64-1.46,5.76,5.76,0,0,1-.89-1.91,6.07,6.07,0,0,1-.21-1.93,5.17,5.17,0,0,1,.39-1.52c.22-.53.47-1.09.77-1.67s.62-1.15,1-1.72.65-1.14.93-1.7C228.44,51,229,50,229.4,49.2a4.73,4.73,0,0,0,.63-2.06,1.89,1.89,0,0,0-.24-1,.82.82,0,0,0-.77-.42,3,3,0,0,0-.51,0,1.53,1.53,0,0,1-.3,0l-.41,0a8,8,0,0,1-.81,0,3.41,3.41,0,0,1-1.31-.23,5.87,5.87,0,0,0-1-.36c-.16.28-.52.87-1.07,1.78s-1.2,2-1.93,3.22-1.51,2.52-2.33,3.87-1.57,2.61-2.29,3.78l-1.81,3C214.74,61.73,214.43,62.22,214.31,62.38Z"/><path class="cls-2" d="M268.3,50.3a46.07,46.07,0,0,1-4.05,5.09,37.89,37.89,0,0,1-4.79,4.4,26,26,0,0,1-5.18,3.12,12.45,12.45,0,0,1-5.15,1.2,7.38,7.38,0,0,1-2.82-.63,8,8,0,0,1-2.77-1.93,9.48,9.48,0,0,1-2-3.4,11.7,11.7,0,0,1-.44-5.06A15.52,15.52,0,0,1,242.62,48a23.25,23.25,0,0,1,3.15-5A17.82,17.82,0,0,1,250,39.23a8.76,8.76,0,0,1,4.73-1.49A4.22,4.22,0,0,1,258,38.87a3.64,3.64,0,0,1,.89,2.8,8.5,8.5,0,0,1-1,3.39,13.91,13.91,0,0,1-2.05,2.8,22.36,22.36,0,0,1-2.53,2.26c-.89.67-1.74,1.29-2.53,1.84l-2.5,1.7c-.79.54-1.49,1-2.08,1.46a6.47,6.47,0,0,0,.53,2.5,5,5,0,0,0,1.19,1.63,4.25,4.25,0,0,0,1.64.9,6.6,6.6,0,0,0,1.87.26,8.46,8.46,0,0,0,4.23-1.27,29,29,0,0,0,4.31-3.1,47.07,47.07,0,0,0,3.93-3.78q1.81-2,3-3.39a1.55,1.55,0,0,1,.86-.57.85.85,0,0,1,.72.12.89.89,0,0,1,.26.72A2.33,2.33,0,0,1,268.3,50.3Zm-15.24-9.17a3.07,3.07,0,0,0-1.7.72,8.74,8.74,0,0,0-1.93,2,17.64,17.64,0,0,0-1.79,3.27,19.57,19.57,0,0,0-1.25,4.44c.48-.36,1-.73,1.55-1.1s1.11-.79,1.67-1.22a16.66,16.66,0,0,0,3.57-3.46,6,6,0,0,0,1.13-2.56,2.41,2.41,0,0,0-.24-1.63A1.16,1.16,0,0,0,253.06,41.13Z"/><path class="cls-2" d="M272.4,60.65a1.65,1.65,0,0,0,.93.24,2.91,2.91,0,0,0,1.13-.24,4.15,4.15,0,0,0,1.07-.65,2.55,2.55,0,0,0,.74-1.07,3.66,3.66,0,0,0,0-1.88,19.24,19.24,0,0,0-.74-2.62c-.34-.93-.71-1.87-1.1-2.82s-.74-1.83-1-2.62c-.23-.6-.43-1.15-.59-1.67s-.31-.86-.45-1.28-.25-.7-.32-.86c-.2.32-.55.83-1.05,1.55s-1,1.45-1.6,2.23-1.12,1.49-1.64,2.14-.87,1.1-1.07,1.34a1.78,1.78,0,0,1-.92.62.84.84,0,0,1-.75-.17,1.08,1.08,0,0,1-.32-.78,2.09,2.09,0,0,1,.44-1.22c.24-.31.6-.82,1.07-1.52s1-1.4,1.43-2.14.91-1.39,1.31-2a7.71,7.71,0,0,0,.66-1,1.82,1.82,0,0,0-.33-1.25,2.19,2.19,0,0,1-.15-1.79,6.15,6.15,0,0,1,1.07-1.93,11.23,11.23,0,0,1,2-2,8.92,8.92,0,0,1,2.33-1.34,2.64,2.64,0,0,1,2.14,0,5.3,5.3,0,0,1,1.25,1,1.36,1.36,0,0,1,.36,1.16c-.08.2-.2.45-.36.77a9.89,9.89,0,0,1-.72,1.16c-.31.46-.77,1-1.36,1.76a15.79,15.79,0,0,0,.5,2.5c.22.75.43,1.4.63,2a13.77,13.77,0,0,0,.77,1.84c.36.72.73,1.45,1.13,2.21s.75,1.5,1.07,2.23a20.91,20.91,0,0,1,.78,2,3.54,3.54,0,0,1,.17,1.61,7.43,7.43,0,0,1-1,2.44,16.23,16.23,0,0,1-2.14,2.77,13.38,13.38,0,0,1-2.92,2.29,6.74,6.74,0,0,1-3.42,1,4.32,4.32,0,0,1-2.41-.77,8.34,8.34,0,0,1-2-1.82,7.8,7.8,0,0,1-1.19-2,1.86,1.86,0,0,1-.09-1.55,8.61,8.61,0,0,1,.65-1.13,5.83,5.83,0,0,1,.9-1c.15-.12.35-.26.59-.42a4.52,4.52,0,0,1,.83-.36l1.25-.41A29.84,29.84,0,0,0,271,58.12c.32.7.58,1.24.78,1.64A2.86,2.86,0,0,0,272.4,60.65Z"/><path class="cls-2" d="M316.15,49.58a1.28,1.28,0,0,1,.86-.5.88.88,0,0,1,.72.24,1,1,0,0,1,.23.8,2.37,2.37,0,0,1-.5,1.19,40.58,40.58,0,0,1-2.62,3.18c-1,1.09-2.06,2.16-3.19,3.19s-2.27,2-3.42,2.91a24.67,24.67,0,0,1-3.33,2.27,6.48,6.48,0,0,1-3,1,3.24,3.24,0,0,1-2.41-1.55,4.55,4.55,0,0,1-1-3,16.47,16.47,0,0,1,.69-3.95c.27-1,.66-2.18,1.16-3.55a36.38,36.38,0,0,0,1.19-3.95,9.34,9.34,0,0,0,.26-3.25,1.39,1.39,0,0,0-1.54-1.34,4.06,4.06,0,0,0-2.06.66,13.36,13.36,0,0,0-2.2,1.69A20.3,20.3,0,0,0,293.83,48,30,30,0,0,0,292,50.59c-.31,1.55-.63,3.08-1,4.59-.28,1.27-.56,2.65-.86,4.13s-.59,2.81-.86,4a2.12,2.12,0,0,1-.78.42,2.78,2.78,0,0,1-.77.12,5.93,5.93,0,0,1-.84-.06,3.61,3.61,0,0,1-.89-.36,4.37,4.37,0,0,1-.71-.62,2.48,2.48,0,0,1-.54-1.05q2.69-11,4.23-17.67t2.38-10.18q.94-4.17,1.31-5.77c.12-.76.22-1.49.3-2.2a18,18,0,0,0,.11-2,9.44,9.44,0,0,0-.17-1.84,4.31,4.31,0,0,1,1-.48c.37-.12.74-.22,1.1-.3s.87-.21,1.31-.29a6.57,6.57,0,0,1,1.19-.12,4.19,4.19,0,0,1,.89.09.65.65,0,0,1,.54.38,1.49,1.49,0,0,1,.32,1.19c0,.6-.07,1.21-.15,1.85s-.33,1.57-.53,2.44q-1.24,4.81-2.8,9.37T293.06,46a24,24,0,0,1,1.84-2.44,18.84,18.84,0,0,1,2.35-2.29A13.45,13.45,0,0,1,300,39.5a6.86,6.86,0,0,1,3-.69,4.6,4.6,0,0,1,1.58.27,3.19,3.19,0,0,1,1.31.89,4,4,0,0,1,.86,1.67,8.32,8.32,0,0,1,.24,2.59,9.62,9.62,0,0,1-.21,2c-.14.68-.32,1.42-.56,2.23s-.55,1.72-.92,2.71-.83,2.14-1.34,3.45c-.36.92-.64,1.69-.84,2.32a2,2,0,0,0,.12,1.67c.36.63,1.06.78,2.12.45A17.77,17.77,0,0,0,310.08,56c.47-.39,1-.89,1.6-1.49s1.17-1.2,1.73-1.81,1.07-1.2,1.55-1.76S315.83,49.9,316.15,49.58Z"/><path class="cls-1" d="M336.62,41.73c.83-1.67,1.67-3.33,2.5-5s1.59-3.19,2.26-4.62,1.25-2.7,1.73-3.83a11.17,11.17,0,0,0,.83-2.71,3.9,3.9,0,0,0-.18-1.85,2.67,2.67,0,0,0-1-1.25,5.69,5.69,0,0,0-1.61-.74,9,9,0,0,0-2.05-.33,34.37,34.37,0,0,0-4.67.09,37.32,37.32,0,0,0-5.21.77,16.35,16.35,0,0,0-4.31,1.58,3.26,3.26,0,0,0-1.94,2.5,2.64,2.64,0,0,0,.3,1.49,2.88,2.88,0,0,0,1.1,1,4.18,4.18,0,0,0,2.41.36,5.21,5.21,0,0,0,.72-.06l.89-.15c.36-.06.77-.15,1.25-.27l-2.92,3.93A3.28,3.28,0,0,1,325,34.11a4.37,4.37,0,0,1-1.73.12,15,15,0,0,1-1.64-.42,11,11,0,0,1-2.44-1.07A7.15,7.15,0,0,1,317,30.81a4.31,4.31,0,0,1-.71-3.07,7,7,0,0,1,1.84-4,13.12,13.12,0,0,1,4.49-3.12,29.52,29.52,0,0,1,6.91-2,52.76,52.76,0,0,1,9.07-.71,18.87,18.87,0,0,1,6.08.8,7.35,7.35,0,0,1,3.3,2.09,4.45,4.45,0,0,1,1,3,9.94,9.94,0,0,1-.74,3.48c-.24.56-.59,1.32-1.05,2.3s-1,2.1-1.63,3.39-1.31,2.71-2,4.25-1.42,3.16-2.14,4.82c1.07.08,2.06.18,2.95.3l2.11.3c.6.16.79.42.6.77A6.78,6.78,0,0,1,346.05,45a2.59,2.59,0,0,1-1.1.74,3.44,3.44,0,0,1-1.31.18l-1.6-.09c-.36,0-.72,0-1.07,0l-1.13-.09c-.76,1.79-1.48,3.56-2.18,5.3s-1.33,3.4-1.9,5-1.08,3-1.52,4.32a24.49,24.49,0,0,0-.89,3.27q-.36,1.84-.54,3.45c-.08.91-.12,1.87-.12,2.86a5.05,5.05,0,0,0,.48,2.38c-.83.24-1.56.44-2.17.59s-1.14.28-1.58.36l-1.19.3a2.87,2.87,0,0,1-2.35-.09c-.46-.34-.59-1.14-.39-2.41.08-.87.21-1.86.39-3a35.55,35.55,0,0,1,.83-3.69c.38-1.37.87-2.89,1.49-4.58s1.4-3.56,2.35-5.62c.56-1.19,1.19-2.51,1.9-4s1.47-3,2.27-4.67a50.46,50.46,0,0,0-5.66.35q-1.67.24-3.27.54l-3,.68q-1.57.39-2.94.87a3.31,3.31,0,0,1-.21-1,4.34,4.34,0,0,1,0-.89,6.16,6.16,0,0,1,.18-.83,4.28,4.28,0,0,1,.35-.84,13.8,13.8,0,0,1,1.14-1.78c1.86-.24,3.64-.42,5.35-.54s3.22-.21,4.53-.29c1.54-.08,3-.12,4.34-.12a1.54,1.54,0,0,1,.51,0A3.43,3.43,0,0,0,336.62,41.73Z"/><path class="cls-1" d="M367.15,53.21a20.55,20.55,0,0,1-1.6,4.23,14.05,14.05,0,0,1-2.41,3.39A10.57,10.57,0,0,1,360,63.06a9.05,9.05,0,0,1-3.84.81,6.34,6.34,0,0,1-3.84-1,6.53,6.53,0,0,1-2.08-2.59,10.41,10.41,0,0,1-.83-3.4c-.1-1.22-.15-2.38-.15-3.45a13.1,13.1,0,0,1,.27-2.5,22.22,22.22,0,0,1,.74-2.79,19,19,0,0,1,1.22-2.86,14,14,0,0,1,1.76-2.62,4.83,4.83,0,0,1,1.1-1.79,6.65,6.65,0,0,1,1.72-1.28,9.71,9.71,0,0,1,2.12-.77,9.39,9.39,0,0,1,2.2-.27.79.79,0,0,1,.32.06l.33.12a6,6,0,0,1,1.94.6,8.25,8.25,0,0,1,2.26,1.6,9.3,9.3,0,0,1,1.87,2.71,9.14,9.14,0,0,1,.78,4c0,.32,0,.7-.06,1.16s-.08.84-.12,1.16a30.53,30.53,0,0,0,2.86-1.31c1-.51,1.95-1.06,2.88-1.64s1.8-1.16,2.59-1.75a19.1,19.1,0,0,0,1.91-1.61,2.05,2.05,0,0,1,1-.59.55.55,0,0,1,.59.23,1.14,1.14,0,0,1,.06.84,3.09,3.09,0,0,1-.65,1.19,19.61,19.61,0,0,1-1.52,1.43c-.81.71-1.78,1.48-2.89,2.32s-2.32,1.64-3.63,2.44A18.54,18.54,0,0,1,367.15,53.21Zm-13.86,1.43a18.28,18.28,0,0,0,.11,2.11,6.27,6.27,0,0,0,.48,1.85,3.7,3.7,0,0,0,.95,1.31,2.29,2.29,0,0,0,1.55.5,3.86,3.86,0,0,0,2-.5A6.1,6.1,0,0,0,360,58.6a9.76,9.76,0,0,0,1.28-1.85,14.67,14.67,0,0,0,1-2.17l-.8.09c-.26,0-.55,0-.86,0a6,6,0,0,1-3.9-1.34,8.75,8.75,0,0,1-2.53-3.42c-.24.83-.44,1.65-.6,2.44A11.4,11.4,0,0,0,353.29,54.64Zm3.8-10.47a3.77,3.77,0,0,0-.17,1.13,17.3,17.3,0,0,0,.11,2,4.83,4.83,0,0,0,.6,1.88,3.78,3.78,0,0,0,1.52,1.4,6.16,6.16,0,0,0,2.88.56q.3,0,.6,0l.6-.09c.11-.51.22-1,.32-1.4a4.72,4.72,0,0,0,.15-1.1,11.24,11.24,0,0,0,0-2.32,9.91,9.91,0,0,0-.45-2.17,4.87,4.87,0,0,0-.83-1.61,1.53,1.53,0,0,0-1.22-.62,4.21,4.21,0,0,0-2.17.62A7.22,7.22,0,0,0,357.09,44.17Z"/><path class="cls-1" d="M391.14,53.21a20.57,20.57,0,0,1-1.61,4.23,13.78,13.78,0,0,1-2.41,3.39A10.4,10.4,0,0,1,384,63.06a9.05,9.05,0,0,1-3.84.81,6.32,6.32,0,0,1-3.84-1,6.44,6.44,0,0,1-2.08-2.59,10.42,10.42,0,0,1-.84-3.4c-.1-1.22-.15-2.38-.15-3.45a13.1,13.1,0,0,1,.27-2.5,22.31,22.31,0,0,1,.75-2.79,18.06,18.06,0,0,1,1.22-2.86,13.92,13.92,0,0,1,1.75-2.62,5.1,5.1,0,0,1,1.1-1.79A6.7,6.7,0,0,1,380,39.55a9.63,9.63,0,0,1,2.11-.77,9.45,9.45,0,0,1,2.2-.27.88.88,0,0,1,.33.06l.33.12a5.91,5.91,0,0,1,1.93.6,8,8,0,0,1,2.26,1.6,8.91,8.91,0,0,1,2.65,6.67c0,.32,0,.7-.06,1.16s-.08.84-.12,1.16a28.35,28.35,0,0,0,2.86-1.31c1-.51,2-1.06,2.89-1.64s1.79-1.16,2.59-1.75a18.84,18.84,0,0,0,1.9-1.61,2.1,2.1,0,0,1,1-.59.55.55,0,0,1,.6.23,1.14,1.14,0,0,1,.06.84,3,3,0,0,1-.66,1.19,17.8,17.8,0,0,1-1.52,1.43c-.81.71-1.77,1.48-2.88,2.32s-2.32,1.64-3.63,2.44A18.54,18.54,0,0,1,391.14,53.21Zm-13.87,1.43a18.27,18.27,0,0,0,.12,2.11,6.27,6.27,0,0,0,.48,1.85,3.47,3.47,0,0,0,.95,1.31,2.28,2.28,0,0,0,1.55.5,3.89,3.89,0,0,0,2-.5,6.26,6.26,0,0,0,1.61-1.31,10.24,10.24,0,0,0,1.28-1.85,17.07,17.07,0,0,0,1-2.17l-.81.09c-.25,0-.54,0-.86,0a6,6,0,0,1-3.9-1.34,8.85,8.85,0,0,1-2.53-3.42c-.23.83-.43,1.65-.59,2.44A11.44,11.44,0,0,0,377.27,54.64Zm3.81-10.47a3.48,3.48,0,0,0-.18,1.13,17.38,17.38,0,0,0,.12,2,4.83,4.83,0,0,0,.6,1.88,3.75,3.75,0,0,0,1.51,1.4,6.23,6.23,0,0,0,2.89.56,5.68,5.68,0,0,0,.59,0l.6-.09.33-1.4a4.72,4.72,0,0,0,.15-1.1,11.24,11.24,0,0,0,0-2.32,9.91,9.91,0,0,0-.45-2.17,5.28,5.28,0,0,0-.83-1.61,1.55,1.55,0,0,0-1.22-.62,4.24,4.24,0,0,0-2.18.62A7.33,7.33,0,0,0,381.08,44.17Z"/><path class="cls-1" d="M416.43,51.31c-.2,1.23-.38,2.4-.56,3.51s-.29,2-.33,2.68a3,3,0,0,0,.53,2.14,1.76,1.76,0,0,0,1.31.66,3.92,3.92,0,0,0,2.06-.84A24.56,24.56,0,0,0,422,57.38c.91-.83,1.82-1.75,2.73-2.74s1.76-1.93,2.53-2.82,1.43-1.68,2-2.36.9-1.11,1.1-1.31a1.38,1.38,0,0,1,.74-.41.81.81,0,0,1,.63.12.76.76,0,0,1,.24.65,2.28,2.28,0,0,1-.48,1.19c-.48.76-1.09,1.64-1.85,2.65s-1.58,2-2.5,3.13-1.87,2.12-2.88,3.15a32.69,32.69,0,0,1-3,2.74,20.57,20.57,0,0,1-2.91,1.93,5.49,5.49,0,0,1-2.53.75,2.87,2.87,0,0,1-1.58-.48,5.44,5.44,0,0,1-1.34-1.25,6,6,0,0,1-.92-1.73,4.82,4.82,0,0,1-.27-1.9c0-.28.1-.75.18-1.43a25.05,25.05,0,0,1-5,4.43A8.91,8.91,0,0,1,402,63.33a4.46,4.46,0,0,1-1.79-.42,4.32,4.32,0,0,1-1.69-1.36,7.77,7.77,0,0,1-1.22-2.5,10.81,10.81,0,0,1-.36-3.75,21.3,21.3,0,0,1,1.37-6.55,20.14,20.14,0,0,1,3-5.39,14.9,14.9,0,0,1,4.1-3.63A9.11,9.11,0,0,1,410,38.39a3.48,3.48,0,0,1,1.85.51,5.09,5.09,0,0,1,1.43,1.31,8.55,8.55,0,0,1,1,1.75,11.08,11.08,0,0,1,.57,1.79c.27-1.15.53-2.28.77-3.39s.47-2.16.71-3.16c.4-1.46.82-3.05,1.25-4.76.4-1.47.86-3.15,1.37-5.06s1.09-3.9,1.73-6a5.35,5.35,0,0,1,1.13-.71,6.19,6.19,0,0,1,1-.36,3.17,3.17,0,0,1,1-.18,3.5,3.5,0,0,1,1.07.15,1.46,1.46,0,0,1,.81.77,5.57,5.57,0,0,1,.44,1.88,23.55,23.55,0,0,1,0,3.39,27.74,27.74,0,0,1-.92,5.72,54.13,54.13,0,0,1-2.11,6.39c-.87,2.21-1.88,4.41-3,6.61A66.18,66.18,0,0,1,416.43,51.31Zm-3.51.77c.16-.75.31-1.5.45-2.26s.3-1.53.5-2.32l-.21.12-.2.12q-.66.3-.9,0a1.8,1.8,0,0,1-.23-1c0-.24,0-.67-.06-1.28a9.57,9.57,0,0,0-.33-1.91,5.45,5.45,0,0,0-.8-1.72,1.74,1.74,0,0,0-1.49-.75,4.1,4.1,0,0,0-2.8,1.4,18.65,18.65,0,0,0-2.68,3.39,22.72,22.72,0,0,0-2.08,4.26,14.62,14.62,0,0,0-.95,4,7.05,7.05,0,0,0,.71,4.1,2.58,2.58,0,0,0,2.26,1.25,4.33,4.33,0,0,0,2.35-.83,16.4,16.4,0,0,0,2.5-2c.82-.8,1.57-1.61,2.27-2.44S412.48,52.64,412.92,52.08Z"/><path class="cls-3" d="M195.29,93.26l-3.2-9.5h1l3,8.94h-.52l3.1-8.94h.92l3,8.94h-.49l3-8.94h1l-3.2,9.5h-1.06L199,84.78h.28l-2.94,8.48Z"/><path class="cls-3" d="M209.88,84.56a.69.69,0,0,1-.51-.2.7.7,0,0,1-.2-.49.66.66,0,0,1,.2-.48.73.73,0,0,1,.51-.2.74.74,0,0,1,.5.19.66.66,0,0,1,.2.48.69.69,0,0,1-.19.5A.69.69,0,0,1,209.88,84.56Zm-.49,8.7V86.14h1v7.12Z"/><path class="cls-3" d="M213.55,86.94v-.8H218v.8Zm3.37,6.39a1.88,1.88,0,0,1-2.09-2.08V84.56h1V91.2a1.34,1.34,0,0,0,.32,1,1.19,1.19,0,0,0,.92.34,1.6,1.6,0,0,0,1.06-.36l.33.69a1.74,1.74,0,0,1-.68.38A2.86,2.86,0,0,1,216.92,93.33Z"/><path class="cls-3" d="M225.44,86.07a3.38,3.38,0,0,1,1.53.33,2.44,2.44,0,0,1,1,1,3.55,3.55,0,0,1,.37,1.71v4.14h-1v-4a2.31,2.31,0,0,0-.57-1.7,2.08,2.08,0,0,0-1.58-.58,2.77,2.77,0,0,0-1.32.3,2.08,2.08,0,0,0-.87.89,2.94,2.94,0,0,0-.3,1.39v3.74h-1V83.19h1v4.9l-.19-.36a2.56,2.56,0,0,1,1.08-1.22A3.48,3.48,0,0,1,225.44,86.07Z"/><path class="cls-3" d="M240.73,93.33a3.48,3.48,0,0,1-1.59-.34,2.46,2.46,0,0,1-1-1,3.46,3.46,0,0,1-.37-1.69V86.14h1v4a2.36,2.36,0,0,0,.56,1.71,2.11,2.11,0,0,0,1.59.58,2.64,2.64,0,0,0,1.29-.3,2,2,0,0,0,.84-.89,3,3,0,0,0,.29-1.4V86.14h1v7.12h-.92v-2l.14.35a2.58,2.58,0,0,1-1.05,1.23A3.12,3.12,0,0,1,240.73,93.33Z"/><path class="cls-3" d="M250.45,93.33a5.36,5.36,0,0,1-1.67-.25,3.68,3.68,0,0,1-1.24-.63l.44-.76a4.1,4.1,0,0,0,1.11.56,4.24,4.24,0,0,0,1.42.24,2.62,2.62,0,0,0,1.47-.32,1,1,0,0,0,.45-.85.82.82,0,0,0-.25-.62,1.58,1.58,0,0,0-.66-.33,6.86,6.86,0,0,0-.91-.2l-1-.19a3.55,3.55,0,0,1-.9-.32,1.76,1.76,0,0,1-.66-.58,1.66,1.66,0,0,1-.25-1,1.77,1.77,0,0,1,.33-1,2.11,2.11,0,0,1,1-.73,4.13,4.13,0,0,1,1.54-.26,5.52,5.52,0,0,1,1.39.18,4,4,0,0,1,1.14.49l-.42.77a3.37,3.37,0,0,0-1-.47,4.53,4.53,0,0,0-1.09-.14,2.46,2.46,0,0,0-1.42.33,1,1,0,0,0-.45.85.83.83,0,0,0,.25.64,1.85,1.85,0,0,0,.67.36,8.59,8.59,0,0,0,.9.21c.33,0,.66.12,1,.19a4.86,4.86,0,0,1,.91.31,1.8,1.8,0,0,1,.66.56,1.6,1.6,0,0,1,.25.94,1.73,1.73,0,0,1-.35,1.08,2.16,2.16,0,0,1-1,.71A4.42,4.42,0,0,1,250.45,93.33Z"/><path class="cls-3" d="M262,96a2.85,2.85,0,0,1-1-.16,2.11,2.11,0,0,1-.78-.49l.45-.72a2.05,2.05,0,0,0,.59.4,1.64,1.64,0,0,0,.71.14,1.28,1.28,0,0,0,.82-.26,2.47,2.47,0,0,0,.66-.93l.46-1,.11-.15L267,86.14H268l-3.57,8a4,4,0,0,1-.65,1.1,2.06,2.06,0,0,1-.78.57A2.38,2.38,0,0,1,262,96Zm1.9-2.5-3.28-7.32h1l2.9,6.54Z"/><path class="cls-3" d="M273.65,93.33a3.66,3.66,0,0,1-1.85-.47,3.43,3.43,0,0,1-1.3-1.29,3.92,3.92,0,0,1,0-3.76,3.44,3.44,0,0,1,1.29-1.28,3.67,3.67,0,0,1,1.86-.46,3.77,3.77,0,0,1,1.88.46,3.44,3.44,0,0,1,1.29,1.28,4.07,4.07,0,0,1,0,3.76,3.43,3.43,0,0,1-1.3,1.29A3.76,3.76,0,0,1,273.65,93.33Zm0-.86a2.7,2.7,0,0,0,1.37-.34,2.47,2.47,0,0,0,.94-1,3.22,3.22,0,0,0,0-2.92,2.44,2.44,0,0,0-.94-1,2.67,2.67,0,0,0-1.36-.35,2.61,2.61,0,0,0-1.35.35,2.56,2.56,0,0,0-1,1,3.22,3.22,0,0,0,0,2.92,2.55,2.55,0,0,0,2.3,1.32Z"/><path class="cls-3" d="M283.82,93.33a3.44,3.44,0,0,1-1.58-.34,2.35,2.35,0,0,1-1.05-1,3.46,3.46,0,0,1-.38-1.69V86.14h1v4a2.32,2.32,0,0,0,.56,1.71,2.08,2.08,0,0,0,1.58.58,2.68,2.68,0,0,0,1.3-.3,2.13,2.13,0,0,0,.84-.89,3.18,3.18,0,0,0,.29-1.4V86.14h1v7.12h-.92v-2l.15.35a2.69,2.69,0,0,1-1.05,1.23A3.15,3.15,0,0,1,283.82,93.33Z"/><path class="cls-3" d="M296.81,93.26V86.14h.92v1.94l-.09-.34a2.33,2.33,0,0,1,1-1.24,3.27,3.27,0,0,1,1.75-.43V87h-.21a2.29,2.29,0,0,0-1.77.69,2.75,2.75,0,0,0-.64,1.94v3.64Z"/><path class="cls-3" d="M306.73,93.33a4,4,0,0,1-2-.47,3.32,3.32,0,0,1-1.31-1.29,3.63,3.63,0,0,1-.48-1.88,3.7,3.7,0,0,1,.46-1.87,3.34,3.34,0,0,1,1.25-1.28,3.67,3.67,0,0,1,3.56,0,3.29,3.29,0,0,1,1.23,1.28,3.88,3.88,0,0,1,.45,1.89.76.76,0,0,1,0,.15V90h-6.2v-.72h5.68l-.38.29a2.82,2.82,0,0,0-.33-1.38,2.4,2.4,0,0,0-.9-.94,2.5,2.5,0,0,0-1.32-.34,2.55,2.55,0,0,0-1.32.34,2.29,2.29,0,0,0-.9,1,2.86,2.86,0,0,0-.33,1.39v.15a2.76,2.76,0,0,0,.36,1.43,2.46,2.46,0,0,0,1,1,3.35,3.35,0,0,0,2.69.11,2.4,2.4,0,0,0,1-.7l.54.62a3,3,0,0,1-1.18.87A4,4,0,0,1,306.73,93.33Z"/><path class="cls-3" d="M322.43,86.07a3.26,3.26,0,0,1,1.51.33,2.32,2.32,0,0,1,1,1,3.67,3.67,0,0,1,.36,1.71v4.14h-1v-4a2.39,2.39,0,0,0-.54-1.7,1.93,1.93,0,0,0-1.51-.58,2.56,2.56,0,0,0-1.27.3,2.17,2.17,0,0,0-.83.89,3.07,3.07,0,0,0-.29,1.39v3.74h-1v-4a2.39,2.39,0,0,0-.54-1.7,2,2,0,0,0-1.52-.58,2.55,2.55,0,0,0-1.26.3,2.07,2.07,0,0,0-.84.89,3.07,3.07,0,0,0-.29,1.39v3.74h-1V86.14h.92v1.92l-.15-.33a2.6,2.6,0,0,1,1.05-1.22,3.28,3.28,0,0,1,1.72-.44,3,3,0,0,1,1.78.52,2.45,2.45,0,0,1,.94,1.57l-.38-.15a2.78,2.78,0,0,1,1.11-1.4A3.33,3.33,0,0,1,322.43,86.07Z"/><path class="cls-3" d="M331.56,93.33a3.45,3.45,0,0,1-1.39-.26,2,2,0,0,1-.9-.74,1.88,1.88,0,0,1-.32-1.08,2,2,0,0,1,.27-1,1.84,1.84,0,0,1,.87-.73,3.83,3.83,0,0,1,1.62-.28h2.45V90h-2.43a2.12,2.12,0,0,0-1.43.37,1.19,1.19,0,0,0-.4.91,1.16,1.16,0,0,0,.48,1,2.08,2.08,0,0,0,1.33.37,2.54,2.54,0,0,0,1.4-.37,2.11,2.11,0,0,0,.86-1.08l.22.66a2.25,2.25,0,0,1-.94,1.13A3.14,3.14,0,0,1,331.56,93.33Zm2.46-.07V91.69l0-.26V88.8a1.89,1.89,0,0,0-.5-1.4,2.11,2.11,0,0,0-1.52-.49,3.8,3.8,0,0,0-1.31.23,3.51,3.51,0,0,0-1.06.61l-.44-.72a4.12,4.12,0,0,1,1.31-.71,5,5,0,0,1,1.6-.25,3,3,0,0,1,2.13.69,2.64,2.64,0,0,1,.76,2.08v4.42Z"/><path class="cls-3" d="M339.67,84.56a.66.66,0,0,1-.5-.2.66.66,0,0,1-.2-.49.62.62,0,0,1,.2-.48.7.7,0,0,1,.5-.2.76.76,0,0,1,.51.19.66.66,0,0,1,.2.48.7.7,0,0,1-.2.5A.66.66,0,0,1,339.67,84.56Zm-.49,8.7V86.14h1v7.12Z"/><path class="cls-3" d="M348.1,86.07a3.38,3.38,0,0,1,1.53.33,2.44,2.44,0,0,1,1,1,3.67,3.67,0,0,1,.37,1.71v4.14h-1v-4a2.31,2.31,0,0,0-.57-1.7,2.08,2.08,0,0,0-1.58-.58,2.77,2.77,0,0,0-1.32.3,2.08,2.08,0,0,0-.87.89,2.94,2.94,0,0,0-.3,1.39v3.74h-1V86.14h.93v2l-.15-.36a2.56,2.56,0,0,1,1.08-1.22A3.48,3.48,0,0,1,348.1,86.07Z"/><path class="cls-3" d="M364.08,86.07a3.38,3.38,0,0,1,1.53.33,2.39,2.39,0,0,1,1,1,3.55,3.55,0,0,1,.37,1.71v4.14h-1v-4a2.35,2.35,0,0,0-.56-1.7,2.11,2.11,0,0,0-1.58-.58,2.81,2.81,0,0,0-1.33.3,2.19,2.19,0,0,0-.87.89,2.94,2.94,0,0,0-.3,1.39v3.74h-1V83.19h1v4.9l-.19-.36a2.63,2.63,0,0,1,1.09-1.22A3.42,3.42,0,0,1,364.08,86.07Z"/><path class="cls-3" d="M374.27,93.33a4,4,0,0,1-1.95-.47A3.41,3.41,0,0,1,371,91.57a3.72,3.72,0,0,1-.47-1.88,3.8,3.8,0,0,1,.45-1.87,3.41,3.41,0,0,1,1.25-1.28,3.47,3.47,0,0,1,1.79-.47,3.51,3.51,0,0,1,1.78.45A3.29,3.29,0,0,1,377,87.8a3.88,3.88,0,0,1,.45,1.89s0,.1,0,.15a.76.76,0,0,0,0,.15h-6.2v-.72H377l-.38.29a2.82,2.82,0,0,0-.34-1.38,2.4,2.4,0,0,0-.9-.94A2.48,2.48,0,0,0,374,86.9a2.55,2.55,0,0,0-1.32.34,2.32,2.32,0,0,0-.91,1,2.86,2.86,0,0,0-.33,1.39v.15a2.76,2.76,0,0,0,.36,1.43,2.48,2.48,0,0,0,1,1,3.07,3.07,0,0,0,1.47.34,3,3,0,0,0,1.21-.23,2.4,2.4,0,0,0,1-.7l.55.62a3.14,3.14,0,0,1-1.19.87A4,4,0,0,1,374.27,93.33Z"/><path class="cls-3" d="M382.87,93.33a3.52,3.52,0,0,1-1.39-.26,2.14,2.14,0,0,1-.9-.74,1.88,1.88,0,0,1-.31-1.08,2.05,2.05,0,0,1,.26-1,1.94,1.94,0,0,1,.87-.73,3.9,3.9,0,0,1,1.62-.28h2.46V90h-2.43a2.1,2.1,0,0,0-1.43.37,1.16,1.16,0,0,0-.4.91,1.18,1.18,0,0,0,.47,1,2.1,2.1,0,0,0,1.33.37,2.58,2.58,0,0,0,1.41-.37,2.16,2.16,0,0,0,.86-1.08l.22.66a2.27,2.27,0,0,1-.95,1.13A3.11,3.11,0,0,1,382.87,93.33Zm2.46-.07V91.69l0-.26V88.8a1.85,1.85,0,0,0-.51-1.4,2.08,2.08,0,0,0-1.51-.49,3.9,3.9,0,0,0-1.32.23,3.64,3.64,0,0,0-1.06.61l-.43-.72a4.07,4.07,0,0,1,1.3-.71,5,5,0,0,1,1.6-.25,3,3,0,0,1,2.14.69,2.67,2.67,0,0,1,.75,2.08v4.42Z"/><path class="cls-3" d="M390.5,93.26V83.19h1V93.26Z"/><path class="cls-3" d="M394.69,86.94v-.8h4.41v.8Zm3.37,6.39A1.88,1.88,0,0,1,396,91.25V84.56h1V91.2a1.34,1.34,0,0,0,.32,1,1.19,1.19,0,0,0,.92.34,1.6,1.6,0,0,0,1.06-.36l.33.69a1.82,1.82,0,0,1-.68.38A2.86,2.86,0,0,1,398.06,93.33Z"/><path class="cls-3" d="M406.58,86.07a3.38,3.38,0,0,1,1.53.33,2.44,2.44,0,0,1,1,1,3.55,3.55,0,0,1,.37,1.71v4.14h-1v-4a2.31,2.31,0,0,0-.57-1.7,2.08,2.08,0,0,0-1.58-.58,2.77,2.77,0,0,0-1.32.3,2.08,2.08,0,0,0-.87.89,2.94,2.94,0,0,0-.3,1.39v3.74h-1V83.19h1v4.9l-.19-.36a2.56,2.56,0,0,1,1.08-1.22A3.48,3.48,0,0,1,406.58,86.07Z"/><path class="cls-3" d="M413.66,96a2.75,2.75,0,0,1-1-.16,2,2,0,0,1-.78-.49l.44-.72a2.05,2.05,0,0,0,.59.4,1.68,1.68,0,0,0,.72.14,1.3,1.3,0,0,0,.82-.26,2.47,2.47,0,0,0,.65-.93l.47-1,.1-.15,2.93-6.61h1l-3.56,8a4.32,4.32,0,0,1-.66,1.1,2.06,2.06,0,0,1-.78.57A2.35,2.35,0,0,1,413.66,96Zm1.9-2.5-3.28-7.32h1l2.91,6.54Z"/></g></g></svg>